<svg width="315" height="290" viewBox="0 0 315 290" fill="none" xmlns="http://www.w3.org/2000/svg">
    <path
        d="M54.1865 18.8861C54.1865 8.9995 63.0637 1.47894 72.8159 3.10366L263.531 34.8768C271.246 36.1622 276.901 42.8375 276.901 50.6593V202.824C276.901 213.014 267.503 220.607 257.541 218.467L66.826 177.496C59.4527 175.912 54.1865 169.395 54.1865 161.853V18.8861Z"
        fill="#38241B" fill-opacity="0.61" />
    <path
        d="M91.6348 58.9198C91.6348 49.0332 100.512 41.5126 110.264 43.1373L300.979 74.9105C308.695 76.1959 314.35 82.8712 314.35 90.693V242.858C314.35 253.047 304.952 260.641 294.989 258.501L104.274 217.53C96.9009 215.946 91.6348 209.429 91.6348 201.887V58.9198Z"
        fill="#38241B" fill-opacity="0.61" />
    <path
        d="M0.97168 86.2599C0.97168 76.3733 9.84885 68.8527 19.601 70.4774L210.316 102.251C218.031 103.536 223.687 110.211 223.687 118.033V270.198C223.687 280.388 214.288 287.981 204.326 285.841L13.6111 244.87C6.23783 243.286 0.97168 236.769 0.97168 229.227V86.2599Z"
        fill="#38241B" fill-opacity="0.61" />

    <path
        d="M54.1865 18.8861C54.1865 8.9995 63.0637 1.47894 72.8159 3.10366L263.531 34.8768C271.246 36.1622 276.901 42.8375 276.901 50.6593V202.824C276.901 213.014 267.503 220.607 257.541 218.467L66.826 177.496C59.4527 175.912 54.1865 169.395 54.1865 161.853V18.8861Z"
        fill="#38241B" fill-opacity="0.61" />
    <path
        d="M91.6348 58.9198C91.6348 49.0332 100.512 41.5126 110.264 43.1373L300.979 74.9105C308.695 76.1959 314.35 82.8712 314.35 90.693V242.858C314.35 253.047 304.952 260.641 294.989 258.501L104.274 217.53C96.9009 215.946 91.6348 209.429 91.6348 201.887V58.9198Z"
        fill="#38241B" fill-opacity="0.61" />
    <path
        d="M0.97168 86.2599C0.97168 76.3733 9.84885 68.8527 19.601 70.4774L210.316 102.251C218.031 103.536 223.687 110.211 223.687 118.033V270.198C223.687 280.387 214.288 287.981 204.326 285.841L13.6111 244.87C6.23783 243.286 0.97168 236.769 0.97168 229.227V86.2599Z"
        fill="#38241B" fill-opacity="0.61" />
    <path
        d="M102 236.329V239.449H97.984V236.329H102ZM103.104 240.521V235.257H96.896V241.657H97.984V240.521H103.104ZM106.448 231.993H99.312C99.712 231.225 100.128 230.313 100.48 229.465L99.024 229.209C98.816 230.025 98.4 231.129 98 231.993H93.632V243.849H94.8V233.145H105.264V242.265C105.264 242.569 105.168 242.649 104.88 242.665C104.544 242.681 103.44 242.681 102.288 242.633C102.464 242.953 102.656 243.513 102.72 243.849C104.16 243.849 105.136 243.833 105.712 243.641C106.272 243.449 106.448 243.049 106.448 242.265V231.993ZM123.072 231.609V230.425H108.944V231.609H115.056V243.833H116.32V235.417C118.144 236.393 120.288 237.705 121.376 238.601L122.208 237.529C120.944 236.569 118.432 235.129 116.528 234.217L116.32 234.457V231.609H123.072ZM134.624 232.777C134.624 233.673 134.832 234.041 135.84 234.041H137.664C138.064 234.041 138.48 234.041 138.672 233.977C138.64 233.721 138.624 233.401 138.608 233.145C138.384 233.193 137.888 233.209 137.648 233.209H136.032C135.728 233.209 135.696 233.113 135.696 232.793V231.641H139.104V230.665H134.24C134.032 230.265 133.728 229.689 133.472 229.273L132.432 229.529C132.608 229.881 132.816 230.281 132.992 230.665H128.672V231.641H134.624V232.777ZM131.68 232.025C131.44 233.049 130.656 233.417 128.224 233.609C128.416 233.801 128.688 234.217 128.752 234.457C131.504 234.137 132.464 233.513 132.72 232.025H131.68ZM128.672 231.145C128.08 230.681 126.928 229.977 126.096 229.513L125.52 230.393C126.352 230.889 127.504 231.641 128.08 232.137L128.672 231.145ZM127.856 235.337C127.248 234.873 126.064 234.249 125.184 233.881L124.656 234.809C125.552 235.209 126.704 235.865 127.28 236.329L127.856 235.337ZM127.44 237.849C126.704 239.593 125.728 241.561 125.056 242.745L125.952 243.513C126.688 242.089 127.568 240.201 128.224 238.585L127.44 237.849ZM130.848 235.337H136.304V237.049H130.848V235.337ZM138.032 238.345C137.52 238.937 136.672 239.769 135.952 240.345C135.36 239.641 134.896 238.841 134.56 237.977H137.296V234.409H129.872V237.977H132.256C131.184 239.033 129.52 239.913 127.728 240.505C127.952 240.697 128.32 241.081 128.48 241.321C129.152 241.081 129.792 240.793 130.4 240.489V241.977C130.4 242.569 130.208 242.777 130.016 242.889C130.192 243.081 130.4 243.561 130.464 243.817C130.752 243.625 131.232 243.465 134.576 242.761C134.56 242.553 134.56 242.137 134.576 241.833L131.44 242.377V239.897C132.24 239.369 132.944 238.777 133.504 238.105C134.512 240.697 136.224 242.713 138.672 243.705C138.832 243.417 139.168 243.049 139.424 242.825C138.32 242.425 137.344 241.801 136.544 241.017C137.312 240.441 138.24 239.641 138.96 238.921L138.032 238.345ZM142.176 237.817V236.649H144.192V237.817H142.176ZM142.176 234.713H144.192V235.865H142.176V234.713ZM147.36 234.713V235.865H145.264V234.713H147.36ZM147.36 237.817H145.264V236.649H147.36V237.817ZM151.568 232.953C151.6 231.833 151.6 230.649 151.6 229.449H150.48C150.48 230.665 150.48 231.833 150.448 232.953H148.544V234.073H150.416C150.272 237.065 149.84 239.641 148.464 241.529V241.465C147.392 241.593 146.304 241.705 145.264 241.801V240.537H148.4V239.625H145.264V238.649H148.368V233.897H145.264V232.889H148.656V231.961H145.264V230.793C146.432 230.665 147.52 230.521 148.384 230.329L147.792 229.417C146.144 229.785 143.264 230.073 140.896 230.201C141.024 230.441 141.136 230.825 141.184 231.081C142.128 231.049 143.168 230.985 144.192 230.905V231.961H140.736V232.889H144.192V233.897H141.2V238.649H144.192V239.625H141.168V240.537H144.192V241.913C142.88 242.041 141.68 242.153 140.72 242.233L140.896 243.273C142.688 243.081 145.168 242.809 147.584 242.521C147.376 242.713 147.152 242.905 146.896 243.081C147.184 243.273 147.6 243.673 147.776 243.929C150.592 241.817 151.328 238.329 151.52 234.073H153.808C153.648 239.881 153.456 241.993 153.088 242.457C152.928 242.665 152.784 242.713 152.512 242.713C152.208 242.713 151.504 242.697 150.736 242.633C150.912 242.937 151.04 243.433 151.072 243.753C151.808 243.801 152.56 243.817 153.008 243.753C153.488 243.705 153.808 243.577 154.08 243.161C154.624 242.489 154.768 240.265 154.944 233.561C154.944 233.401 154.96 232.953 154.96 232.953H151.568Z"
        fill="white" />
    <rect x="109.753" y="177.788" width="27.5639" height="40.963" rx="11" stroke="white" stroke-width="2" />
    <line x1="124.05" y1="172.429" x2="124.05" y2="183.099" stroke="white" stroke-width="3" stroke-linecap="round" />
</svg>